<?xml version="1.0" ?><svg id="Layer_1" style="enable-background:new 0 0 120 120;" version="1.1" viewBox="0 0 120 120" xml:space="preserve" xmlns="http://www.w3.org/2000/svg" xmlns:xlink="http://www.w3.org/1999/xlink"><style type="text/css">
	.st0{fill:#9FCDFF;}
	.st1{fill:#E9FBFF;}
	.st2{fill:#FFFFFF;}
	.st3{fill:#4B92FF;}
	.st4{fill:#FFCD57;}
	.st5{fill:#C7E9FF;}
	.st6{fill:#A3ED9D;}
</style><g><path class="st0" d="M83.6,107.5H36.4c-3,0-5.4-2.4-5.4-5.4V17.9c0-3,2.4-5.4,5.4-5.4h47.3c3,0,5.4,2.4,5.4,5.4v84.1   C89.1,105,86.6,107.5,83.6,107.5z"/><path class="st1" d="M81.5,17.5H67.1c-1.2,0-2.1,0.9-2.1,2.1v0c0,1.2-0.9,2.1-2.1,2.1h-5.7c-1.2,0-2.1-0.9-2.1-2.1v0   c0-1.2-0.9-2.1-2.1-2.1H38.5c-1.4,0-2.5,1.1-2.5,2.5v79.9c0,1.4,1.1,2.5,2.5,2.5h43.1c1.4,0,2.5-1.1,2.5-2.5V20.1   C84.1,18.7,82.9,17.5,81.5,17.5z"/><path class="st2" d="M68.6,97.4H51.4c-0.9,0-1.7-0.8-1.7-1.7l0,0c0-0.9,0.8-1.7,1.7-1.7h17.1c0.9,0,1.7,0.8,1.7,1.7l0,0   C70.3,96.7,69.5,97.4,68.6,97.4z"/><g><g><path class="st3" d="M75.7,58.6c0,2,1.6,3.6,3.6,3.6v2.9c0,1.7-1.3,3-3,3H46c-1.7,0-3-1.3-3-3v-2.9c2,0,3.6-1.6,3.6-3.6     S45,55,43,55v-2.9c0-1.7,1.3-3,3-3h30.4c1.7,0,3,1.3,3,3V55C77.4,55,75.7,56.6,75.7,58.6z"/><path class="st4" d="M75.2,66.7h-4.9c-0.3,0-0.5-0.2-0.5-0.5v-1.5c0-0.3,0.2-0.5,0.5-0.5h4.9c0.3,0,0.5,0.2,0.5,0.5v1.5     C75.7,66.4,75.5,66.7,75.2,66.7z"/><path class="st5" d="M67.2,65h-4c-0.2,0-0.4,0.2-0.4,0.4l0,0c0,0.2,0.2,0.4,0.4,0.4h4c0.2,0,0.4-0.2,0.4-0.4l0,0     C67.6,65.2,67.5,65,67.2,65z"/></g><g><path class="st0" d="M71.8,44.4c1.1,1.7,3.4,2.1,5.1,0.9l1.6,2.4c0.9,1.3,0.6,3.2-0.8,4.2L52.7,69c-1.3,0.9-3.2,0.6-4.2-0.8     l-1.6-2.4c1.7-1.2,2.1-3.4,1-5.1s-3.4-2.1-5.1-0.9l-1.7-2.4c-0.9-1.3-0.6-3.2,0.8-4.2L67,36.1c1.3-0.9,3.2-0.6,4.2,0.8l1.6,2.4     C71.2,40.5,70.7,42.7,71.8,44.4z"/><path class="st5" d="M72.8,39.4L71.2,37c-0.9-1.3-2.8-1.7-4.2-0.8l-8,5.4l-0.4,0.3l-0.4,0.3l0.4,0.5c0.1,0.2,0.4,0.3,0.7,0.1     l0.1,0l0.9,1.3l-0.1,0c-0.2,0.1-0.3,0.4-0.1,0.7l0.7,1c0.1,0.2,0.4,0.3,0.7,0.1l0.1,0l0.9,1.3l-0.1,0c-0.2,0.1-0.3,0.4-0.1,0.7     l0.7,1c0.1,0.2,0.4,0.3,0.7,0.1l0.1,0l0.9,1.3l-0.1,0c-0.2,0.1-0.3,0.4-0.1,0.7l0.7,1c0.1,0.2,0.4,0.3,0.7,0.1l0.1,0l0.9,1.3     l-0.1,0c-0.2,0.1-0.3,0.4-0.1,0.7l0.7,1c0.1,0.2,0.4,0.3,0.7,0.1l0.1,0l0.9,1.3l-0.1,0c-0.2,0.1-0.3,0.4-0.1,0.7l0.4,0.5l0.5-0.3     l0.4-0.3l8-5.4c1.3-0.9,1.7-2.8,0.8-4.2L77,45.4c-1.7,1.1-4,0.7-5.1-0.9C70.7,42.8,71.2,40.5,72.8,39.4z"/><path class="st3" d="M75.2,51.1l-4.1,2.8c-0.2,0.2-0.6,0.1-0.7-0.1l-0.8-1.2c-0.2-0.2-0.1-0.6,0.1-0.7l4.1-2.8     c0.2-0.2,0.6-0.1,0.7,0.1l0.8,1.2C75.5,50.6,75.4,51,75.2,51.1z"/><g><path class="st0" d="M66,39.8L62.8,42c-0.2,0.1-0.2,0.4,0,0.6l0,0c0.1,0.2,0.4,0.3,0.6,0.2l3.2-2.2c0.2-0.1,0.2-0.4,0-0.6l0,0      C66.4,39.8,66.2,39.7,66,39.8z"/><path class="st0" d="M67,41.3l-3.2,2.2c-0.2,0.1-0.2,0.4,0,0.6c0.1,0.2,0.4,0.3,0.6,0.2l3.2-2.2c0.2-0.1,0.2-0.4,0-0.6      C67.4,41.3,67.2,41.2,67,41.3z"/></g><rect class="st4" height="5.3" transform="matrix(0.826 -0.5637 0.5637 0.826 -16.2869 40.0836)" width="2.6" x="55.5" y="43.8"/><path class="st5" d="M55,63.9l-3.3,2.3c-0.2,0.1-0.2,0.4-0.1,0.6l0,0c0.1,0.2,0.4,0.2,0.6,0.1l3.3-2.3c0.2-0.1,0.2-0.4,0.1-0.6     l0,0C55.5,63.8,55.2,63.8,55,63.9z"/></g></g><path class="st6" d="M68.2,85.1H51.8c-1.1,0-2.1-0.9-2.1-2.1v-6.1c0-1.1,0.9-2.1,2.1-2.1h16.4c1.1,0,2.1,0.9,2.1,2.1V83   C70.3,84.2,69.4,85.1,68.2,85.1z"/></g></svg>